# xmcd CD database file
#
# Track frame offsets:
#	150
#	20543
#	66962
#	116142
#	168151
#
# Disc length: 2965 seconds
#
# Revision: 1
# Processed by: cddbd v1.5.2PL0 Copyright (c) Steve Scherf et al.
# Submitted via: CDex 1.70beta2
#
DISCID=3d0b9305
DTITLE=Ulrich Gumpert Workshop Band - Echos von Karolinenhof
DYEAR=1979
DGENRE=Jazz
TTITLE0=01-Hahnenkopf
TTITLE1=02-Septettfragment 
TTITLE2=03-Blau Blusen Blues
TTITLE3=04-Echos von Karolinenhof
TTITLE4=05-Hilferuf einer Schnecke
EXTD=YEAR: 1979
EXTT0=
EXTT1=
EXTT2=
EXTT3=
EXTT4=
PLAYORDER=
